<svg xmlns="http://www.w3.org/2000/svg" viewBox="0 0 64 64">
  <defs>
    <clipPath id="c"><rect width="64" height="64" rx="14"></rect></clipPath>
    <linearGradient id="sky" x1="0" y1="0" x2="0" y2="1">
      <stop offset="0" stop-color="#24406b"></stop>
      <stop offset="0.42" stop-color="#4E82BE"></stop>
      <stop offset="0.72" stop-color="#EBB4A0"></stop>
      <stop offset="1" stop-color="#F2B950"></stop>
    </linearGradient>
    <radialGradient id="glow" cx="0.5" cy="0.5" r="0.5">
      <stop offset="0" stop-color="#FFF0C4" stop-opacity="0.95"></stop>
      <stop offset="0.5" stop-color="#FBD98A" stop-opacity="0.55"></stop>
      <stop offset="1" stop-color="#FBD98A" stop-opacity="0"></stop>
    </radialGradient>
  </defs>
  <g clip-path="url(#c)">
    <rect width="64" height="64" fill="url(#sky)"></rect>
    <circle cx="32" cy="33" r="17" fill="url(#glow)"></circle>
    <circle cx="32" cy="33" r="8.5" fill="#FFF0C4"></circle>
    <circle cx="32" cy="33" r="8.5" fill="#F2B950" opacity="0.5"></circle>
    <path d="M0 64 L12 41 L22 50 L34 36 L46 49 L64 40 L64 64 Z" fill="#24406b" opacity="0.55"></path>
    <path d="M0 64 L10 47 L20 55 L30 44 L40 54 L52 45 L64 53 L64 64 Z" fill="#2d4a3e"></path>
    <path d="M30 44 L26 49 L34 49 Z" fill="#f5f1e8" opacity="0.9"></path>
    <path d="M52 45 L48.5 49.5 L55.5 49.5 Z" fill="#f5f1e8" opacity="0.85"></path>
    <path d="M0 64 L16 54 L30 60 L46 52 L64 60 L64 64 Z" fill="#22392f"></path>
    <g fill="#1a2c25">
      <rect x="11.2" y="55" width="1.6" height="6"></rect>
      <path d="M12 47 L8.5 54 L15.5 54 Z"></path>
      <path d="M12 50.5 L9 56 L15 56 Z"></path>
    </g>
  </g>
</svg>