<svg xmlns="http://www.w3.org/2000/svg" viewBox="0 0 64 64">
  <rect width="64" height="64" rx="12" fill="#2d4a3e"/>
  <g fill="#f5f1e8">
  <path transform="translate(3.211 46.000) scale(0.02148 -0.02148)" d="M1251 489Q1251 264 1102.5 116.0Q954 -32 726 -32Q638 -32 574.5 -19.5Q511 -7 467 11Q421 30 393.5 48.5Q366 67 350 79L207 -51L148 -28Q153 45 156.5 130.5Q160 216 160 361V1297Q160 1335 144.5 1367.5Q129 1400 103 1417Q84 1429 47.5 1438.0Q11 1447 -20 1449V1522L474 1548L489 1532V882H495Q568 953 645.0 986.0Q722 1019 799 1019Q1009 1019 1130.0 876.0Q1251 733 1251 489ZM892 477Q892 553 880.5 623.5Q869 694 842 748Q815 802 771.0 834.5Q727 867 662 867Q601 867 561.0 847.0Q521 827 489 788V206Q495 186 511.5 153.5Q528 121 545 103Q569 77 596.0 63.5Q623 50 672 50Q774 50 833.0 161.5Q892 273 892 477Z"/>
  <path transform="translate(31.613 46.000) scale(0.02148 -0.02148)" d="M1351 21 858 -8 843 6V98L836 100Q787 47 703.5 7.5Q620 -32 535 -32Q333 -32 202.0 118.0Q71 268 71 506Q71 717 217.5 868.0Q364 1019 572 1019Q654 1019 726.0 1000.5Q798 982 841 957V1284Q841 1321 826.0 1353.5Q811 1386 786 1404Q755 1426 708.5 1435.5Q662 1445 615 1449V1522L1155 1548L1170 1532V221Q1170 183 1182.5 157.0Q1195 131 1223 116Q1244 105 1284.5 100.0Q1325 95 1351 94ZM841 199V764Q834 787 821.5 815.0Q809 843 787 868Q767 889 733.5 905.0Q700 921 658 921Q558 921 494.0 808.0Q430 695 430 489Q430 408 441.5 343.5Q453 279 482 226Q511 173 556.5 143.0Q602 113 666 113Q727 113 767.0 136.5Q807 160 841 199Z"/>
  </g>
</svg>
